<svg xmlns="http://www.w3.org/2000/svg" xmlns:xlink="http://www.w3.org/1999/xlink" width="600" zoomAndPan="magnify" viewBox="0 0 450 74.999997" height="100" preserveAspectRatio="xMidYMid meet" version="1.0"><defs><g/></defs><rect x="-45" width="540" fill="#ffffff" y="-7.5" height="89.999996" fill-opacity="1"/><rect x="-45" width="540" fill="#7e22ce" y="-7.5" height="89.999996" fill-opacity="1"/><g fill="#ffffff" fill-opacity="1"><g transform="translate(145.211863, 36.96321)"><g><path d="M 7.390625 -8.09375 C 7.335938 -8.21875 7.300781 -8.28125 7.28125 -8.28125 C 7.175781 -8.28125 6.984375 -7.832031 6.703125 -6.9375 C 6.285156 -5.644531 6.082031 -4.988281 6.09375 -4.96875 C 6.113281 -4.957031 6.332031 -4.976562 6.75 -5.03125 C 6.925781 -5.0625 7.101562 -5.085938 7.28125 -5.109375 C 7.457031 -5.140625 7.648438 -5.164062 7.859375 -5.1875 C 8.015625 -5.21875 8.128906 -5.238281 8.203125 -5.25 C 8.285156 -5.257812 8.332031 -5.265625 8.34375 -5.265625 C 8.382812 -5.273438 8.253906 -5.71875 7.953125 -6.59375 C 7.671875 -7.414062 7.484375 -7.914062 7.390625 -8.09375 Z M 5.234375 -13.28125 C 5.410156 -13.320312 5.679688 -13.320312 6.046875 -13.28125 C 6.410156 -13.238281 6.722656 -13.203125 6.984375 -13.171875 C 7.242188 -13.140625 7.4375 -13.113281 7.5625 -13.09375 C 7.832031 -13.050781 8.25 -12.929688 8.8125 -12.734375 C 9.320312 -12.609375 9.671875 -12.441406 9.859375 -12.234375 C 9.972656 -12.128906 10.117188 -11.832031 10.296875 -11.34375 C 10.390625 -11.101562 10.515625 -10.75 10.671875 -10.28125 C 10.828125 -9.8125 11.019531 -9.222656 11.25 -8.515625 C 11.425781 -7.972656 11.566406 -7.535156 11.671875 -7.203125 C 11.785156 -6.867188 11.875 -6.617188 11.9375 -6.453125 C 12.007812 -6.242188 12.070312 -6.0625 12.125 -5.90625 C 12.1875 -5.75 12.238281 -5.609375 12.28125 -5.484375 C 12.34375 -5.328125 12.394531 -5.1875 12.4375 -5.0625 C 12.476562 -4.9375 12.515625 -4.832031 12.546875 -4.75 C 12.710938 -4.332031 12.867188 -3.910156 13.015625 -3.484375 C 13.160156 -3.066406 13.300781 -2.628906 13.4375 -2.171875 C 13.570312 -1.691406 13.675781 -1.300781 13.75 -1 C 13.832031 -0.695312 13.894531 -0.398438 13.9375 -0.109375 C 13.988281 0.222656 14.023438 0.484375 14.046875 0.671875 C 14.066406 0.859375 14.082031 1.003906 14.09375 1.109375 C 14.101562 1.222656 14.109375 1.296875 14.109375 1.328125 C 14.085938 1.328125 14.023438 1.367188 13.921875 1.453125 C 13.828125 1.546875 13.75 1.59375 13.6875 1.59375 C 13.632812 1.59375 13.578125 1.609375 13.515625 1.640625 C 13.460938 1.679688 13.039062 1.707031 12.25 1.71875 L 11.046875 1.71875 L 10.875 1.625 C 10.769531 1.582031 10.648438 1.492188 10.515625 1.359375 C 10.429688 1.273438 10.375 1.210938 10.34375 1.171875 C 10.3125 1.128906 10.289062 1.097656 10.28125 1.078125 C 10.28125 1.054688 10.28125 1.035156 10.28125 1.015625 C 10.289062 1.003906 10.285156 0.992188 10.265625 0.984375 C 10.222656 0.941406 10.203125 0.910156 10.203125 0.890625 C 10.203125 0.867188 10.125 0.785156 9.96875 0.640625 C 9.820312 0.492188 9.722656 0.382812 9.671875 0.3125 C 9.660156 0.28125 9.648438 0.242188 9.640625 0.203125 C 9.628906 0.171875 9.601562 0.125 9.5625 0.0625 C 9.457031 -0.0820312 9.472656 -0.132812 9.609375 -0.09375 C 9.648438 -0.09375 9.679688 -0.125 9.703125 -0.1875 C 9.710938 -0.28125 9.738281 -0.300781 9.78125 -0.25 C 9.800781 -0.226562 9.8125 -0.242188 9.8125 -0.296875 L 9.8125 -0.546875 C 9.789062 -0.796875 9.742188 -1.050781 9.671875 -1.3125 C 9.597656 -1.582031 9.488281 -1.925781 9.34375 -2.34375 L 9.25 -2.609375 L 8.984375 -2.59375 C 8.734375 -2.570312 8.421875 -2.523438 8.046875 -2.453125 C 7.671875 -2.378906 7.226562 -2.28125 6.71875 -2.15625 C 6.613281 -2.125 6.519531 -2.097656 6.4375 -2.078125 C 6.351562 -2.054688 6.28125 -2.035156 6.21875 -2.015625 C 6.164062 -2.003906 6.078125 -1.984375 5.953125 -1.953125 C 5.828125 -1.929688 5.660156 -1.882812 5.453125 -1.8125 C 5.066406 -1.71875 4.859375 -1.648438 4.828125 -1.609375 C 4.773438 -1.554688 4.695312 -1.394531 4.59375 -1.125 C 4.445312 -0.757812 4.289062 -0.425781 4.125 -0.125 C 3.96875 0.164062 3.785156 0.457031 3.578125 0.75 C 3.460938 0.90625 3.40625 1.003906 3.40625 1.046875 C 3.40625 1.054688 3.347656 1.117188 3.234375 1.234375 L 3.0625 1.4375 L 2.703125 1.40625 C 2.503906 1.394531 2.367188 1.367188 2.296875 1.328125 C 2.273438 1.316406 2.179688 1.351562 2.015625 1.4375 C 1.765625 1.550781 1.628906 1.566406 1.609375 1.484375 C 1.597656 1.460938 1.5625 1.429688 1.5 1.390625 C 1.4375 1.347656 1.34375 1.316406 1.21875 1.296875 C 1.175781 1.285156 1.15625 1.253906 1.15625 1.203125 C 1.15625 1.148438 1.140625 1.125 1.109375 1.125 C 1.054688 1.125 0.96875 1.050781 0.84375 0.90625 C 0.726562 0.769531 0.664062 0.660156 0.65625 0.578125 C 0.65625 0.484375 0.628906 0.414062 0.578125 0.375 C 0.484375 0.269531 0.457031 -0.0703125 0.5 -0.65625 C 0.53125 -0.863281 0.546875 -0.96875 0.546875 -0.96875 C 0.566406 -1.039062 0.582031 -1.113281 0.59375 -1.1875 C 0.644531 -1.320312 0.710938 -1.445312 0.796875 -1.5625 C 0.878906 -1.707031 0.929688 -1.816406 0.953125 -1.890625 C 0.972656 -1.960938 1.015625 -2.039062 1.078125 -2.125 C 1.148438 -2.207031 1.222656 -2.316406 1.296875 -2.453125 C 1.367188 -2.597656 1.457031 -2.785156 1.5625 -3.015625 C 1.632812 -3.203125 1.6875 -3.34375 1.71875 -3.4375 C 1.757812 -3.53125 1.785156 -3.597656 1.796875 -3.640625 C 1.796875 -3.691406 1.816406 -3.765625 1.859375 -3.859375 C 2.003906 -4.179688 2.21875 -4.753906 2.5 -5.578125 C 2.59375 -5.835938 2.664062 -6.050781 2.71875 -6.21875 C 2.78125 -6.394531 2.828125 -6.535156 2.859375 -6.640625 C 3.054688 -7.191406 3.25 -7.757812 3.4375 -8.34375 C 3.632812 -8.9375 3.820312 -9.550781 4 -10.1875 C 4.394531 -11.457031 4.554688 -12.21875 4.484375 -12.46875 C 4.472656 -12.53125 4.445312 -12.582031 4.40625 -12.625 C 4.363281 -12.664062 4.390625 -12.722656 4.484375 -12.796875 C 4.566406 -12.847656 4.59375 -12.890625 4.5625 -12.921875 C 4.539062 -12.953125 4.582031 -13 4.6875 -13.0625 C 4.875 -13.175781 5.054688 -13.25 5.234375 -13.28125 Z M 5.234375 -13.28125 "/></g></g></g><g fill="#ffffff" fill-opacity="1"><g transform="translate(159.284868, 36.96321)"><g><path d="M 2.359375 -9.625 C 2.640625 -9.625 2.898438 -9.601562 3.140625 -9.5625 C 3.273438 -9.550781 3.394531 -9.550781 3.5 -9.5625 C 3.601562 -9.570312 3.726562 -9.546875 3.875 -9.484375 C 3.976562 -9.429688 4.046875 -9.390625 4.078125 -9.359375 C 4.109375 -9.335938 4.148438 -9.273438 4.203125 -9.171875 C 4.253906 -9.003906 4.304688 -8.921875 4.359375 -8.921875 C 4.378906 -8.921875 4.4375 -8.941406 4.53125 -8.984375 C 4.632812 -9.035156 4.789062 -9.097656 5 -9.171875 C 5.375 -9.328125 5.664062 -9.429688 5.875 -9.484375 C 6.082031 -9.535156 6.359375 -9.5625 6.703125 -9.5625 C 7.054688 -9.5625 7.269531 -9.535156 7.34375 -9.484375 C 7.394531 -9.441406 7.46875 -9.257812 7.5625 -8.9375 C 7.65625 -8.71875 7.679688 -8.40625 7.640625 -8 C 7.628906 -7.894531 7.609375 -7.765625 7.578125 -7.609375 C 7.546875 -7.453125 7.5 -7.300781 7.4375 -7.15625 C 7.382812 -7.007812 7.316406 -6.875 7.234375 -6.75 C 7.148438 -6.625 7.054688 -6.535156 6.953125 -6.484375 C 6.796875 -6.421875 6.65625 -6.46875 6.53125 -6.625 L 6.40625 -6.75 L 6.15625 -6.75 C 6.050781 -6.75 5.929688 -6.722656 5.796875 -6.671875 C 5.671875 -6.617188 5.546875 -6.554688 5.421875 -6.484375 C 5.296875 -6.410156 5.179688 -6.328125 5.078125 -6.234375 C 4.984375 -6.140625 4.914062 -6.054688 4.875 -5.984375 C 4.851562 -5.921875 4.828125 -5.867188 4.796875 -5.828125 C 4.765625 -5.785156 4.734375 -5.75 4.703125 -5.71875 C 4.648438 -5.625 4.625 -5.554688 4.625 -5.515625 C 4.625 -5.472656 4.613281 -5.425781 4.59375 -5.375 C 4.539062 -5.257812 4.503906 -5.109375 4.484375 -4.921875 C 4.472656 -4.722656 4.457031 -4.320312 4.4375 -3.71875 C 4.414062 -2.914062 4.398438 -2.242188 4.390625 -1.703125 C 4.378906 -1.160156 4.367188 -0.738281 4.359375 -0.4375 C 4.347656 0.226562 4.304688 0.617188 4.234375 0.734375 C 4.210938 0.785156 4.160156 0.863281 4.078125 0.96875 C 3.992188 1.070312 3.894531 1.175781 3.78125 1.28125 C 3.675781 1.382812 3.570312 1.476562 3.46875 1.5625 C 3.363281 1.65625 3.285156 1.707031 3.234375 1.71875 C 3.128906 1.769531 3.015625 1.796875 2.890625 1.796875 C 2.742188 1.796875 2.585938 1.742188 2.421875 1.640625 C 2.265625 1.535156 2.054688 1.367188 1.796875 1.140625 C 1.628906 0.992188 1.492188 0.875 1.390625 0.78125 C 1.285156 0.6875 1.222656 0.613281 1.203125 0.5625 C 1.054688 0.382812 1.015625 0.164062 1.078125 -0.09375 C 1.097656 -0.15625 1.113281 -0.300781 1.125 -0.53125 C 1.132812 -0.757812 1.15625 -1.070312 1.1875 -1.46875 C 1.195312 -1.90625 1.203125 -2.398438 1.203125 -2.953125 C 1.203125 -3.515625 1.1875 -4.144531 1.15625 -4.84375 C 1.132812 -5.519531 1.109375 -6.097656 1.078125 -6.578125 C 1.054688 -7.066406 1.03125 -7.460938 1 -7.765625 C 0.96875 -8.078125 0.929688 -8.28125 0.890625 -8.375 C 0.878906 -8.457031 0.789062 -8.570312 0.625 -8.71875 C 0.4375 -8.882812 0.347656 -9.003906 0.359375 -9.078125 C 0.378906 -9.160156 0.503906 -9.25 0.734375 -9.34375 C 0.941406 -9.445312 1.203125 -9.519531 1.515625 -9.5625 C 1.835938 -9.601562 2.117188 -9.625 2.359375 -9.625 Z M 2.359375 -9.625 "/></g></g></g><g fill="#ffffff" fill-opacity="1"><g transform="translate(166.873045, 36.96321)"><g><path d="M 7.875 -9.796875 C 8.707031 -9.796875 9.367188 -9.5625 9.859375 -9.09375 C 10.347656 -8.632812 10.679688 -8.023438 10.859375 -7.265625 L 10.953125 -6.859375 L 10.9375 -4.5625 C 10.9375 -4.238281 10.9375 -3.882812 10.9375 -3.5 C 10.9375 -3.113281 10.925781 -2.734375 10.90625 -2.359375 C 10.914062 -1.984375 10.910156 -1.617188 10.890625 -1.265625 C 10.867188 -0.921875 10.847656 -0.585938 10.828125 -0.265625 C 10.773438 0.335938 10.695312 0.71875 10.59375 0.875 C 10.53125 0.976562 10.5 1.03125 10.5 1.03125 C 10.5 1.050781 10.429688 1.101562 10.296875 1.1875 C 10.171875 1.28125 10.085938 1.320312 10.046875 1.3125 C 10.023438 1.289062 9.972656 1.3125 9.890625 1.375 C 9.828125 1.425781 9.742188 1.460938 9.640625 1.484375 C 9.535156 1.515625 9.429688 1.53125 9.328125 1.53125 C 9.210938 1.53125 9.125 1.507812 9.0625 1.46875 C 9.03125 1.457031 8.921875 1.421875 8.734375 1.359375 C 8.671875 1.328125 8.597656 1.296875 8.515625 1.265625 C 8.441406 1.234375 8.351562 1.1875 8.25 1.125 C 8.0625 1.03125 7.957031 0.972656 7.9375 0.953125 C 7.925781 0.929688 7.867188 0.851562 7.765625 0.71875 C 7.648438 0.625 7.570312 0.515625 7.53125 0.390625 C 7.476562 0.285156 7.410156 0.160156 7.328125 0.015625 C 7.242188 -0.117188 7.128906 -0.269531 6.984375 -0.4375 C 6.910156 -0.539062 6.847656 -0.628906 6.796875 -0.703125 C 6.742188 -0.773438 6.710938 -0.828125 6.703125 -0.859375 L 6.65625 -0.953125 L 6.703125 -0.921875 C 6.992188 -0.796875 7.164062 -0.738281 7.21875 -0.75 C 7.257812 -0.78125 7.289062 -0.769531 7.3125 -0.71875 C 7.382812 -0.613281 7.476562 -0.597656 7.59375 -0.671875 C 7.625 -0.703125 7.640625 -1.269531 7.640625 -2.375 C 7.640625 -3.0625 7.640625 -3.632812 7.640625 -4.09375 C 7.640625 -4.5625 7.628906 -4.957031 7.609375 -5.28125 C 7.597656 -5.601562 7.582031 -5.863281 7.5625 -6.0625 C 7.539062 -6.269531 7.507812 -6.441406 7.46875 -6.578125 L 7.4375 -6.734375 L 7.15625 -6.734375 C 6.65625 -6.734375 6.195312 -6.53125 5.78125 -6.125 C 5.5625 -5.925781 5.378906 -5.726562 5.234375 -5.53125 C 5.097656 -5.332031 4.972656 -5.097656 4.859375 -4.828125 C 4.835938 -4.742188 4.8125 -4.671875 4.78125 -4.609375 C 4.757812 -4.554688 4.734375 -4.503906 4.703125 -4.453125 C 4.554688 -4.171875 4.445312 -3.414062 4.375 -2.1875 C 4.332031 -1.6875 4.289062 -1.242188 4.25 -0.859375 C 4.21875 -0.484375 4.1875 -0.164062 4.15625 0.09375 C 4.101562 0.46875 4.050781 0.734375 4 0.890625 C 3.957031 1.046875 3.890625 1.15625 3.796875 1.21875 C 3.765625 1.25 3.613281 1.28125 3.34375 1.3125 C 3.070312 1.375 2.921875 1.394531 2.890625 1.375 C 2.867188 1.363281 2.785156 1.375 2.640625 1.40625 C 2.503906 1.445312 2.375 1.46875 2.25 1.46875 C 2.0625 1.46875 1.878906 1.421875 1.703125 1.328125 C 1.210938 1.054688 0.988281 0.539062 1.03125 -0.21875 C 1.195312 -4.394531 1.210938 -6.972656 1.078125 -7.953125 C 1.054688 -8.109375 1.03125 -8.210938 1 -8.265625 C 0.96875 -8.316406 0.910156 -8.367188 0.828125 -8.421875 C 0.742188 -8.460938 0.703125 -8.535156 0.703125 -8.640625 C 0.703125 -8.753906 0.863281 -8.925781 1.1875 -9.15625 C 1.300781 -9.21875 1.4375 -9.28125 1.59375 -9.34375 C 1.757812 -9.414062 1.925781 -9.472656 2.09375 -9.515625 C 2.269531 -9.554688 2.445312 -9.585938 2.625 -9.609375 C 2.800781 -9.640625 2.953125 -9.65625 3.078125 -9.65625 C 3.453125 -9.65625 3.757812 -9.5625 4 -9.375 C 4.238281 -9.1875 4.390625 -8.90625 4.453125 -8.53125 C 4.472656 -8.414062 4.5 -8.359375 4.53125 -8.359375 C 4.550781 -8.359375 4.816406 -8.550781 5.328125 -8.9375 C 5.734375 -9.25 6.128906 -9.46875 6.515625 -9.59375 C 6.910156 -9.726562 7.363281 -9.796875 7.875 -9.796875 Z M 7.875 -9.796875 "/></g></g></g><g fill="#ffffff" fill-opacity="1"><g transform="translate(178.506977, 36.96321)"><g><path d="M 2.109375 -9.640625 C 2.210938 -9.660156 2.421875 -9.671875 2.734375 -9.671875 C 2.859375 -9.671875 2.957031 -9.671875 3.03125 -9.671875 C 3.113281 -9.671875 3.175781 -9.664062 3.21875 -9.65625 C 3.269531 -9.644531 3.3125 -9.628906 3.34375 -9.609375 C 3.382812 -9.585938 3.4375 -9.5625 3.5 -9.53125 C 3.96875 -9.269531 4.226562 -8.898438 4.28125 -8.421875 C 4.289062 -8.359375 4.273438 -7.90625 4.234375 -7.0625 C 4.210938 -6.675781 4.191406 -6.253906 4.171875 -5.796875 C 4.160156 -5.347656 4.148438 -4.867188 4.140625 -4.359375 C 4.128906 -3.847656 4.113281 -3.453125 4.09375 -3.171875 C 4.082031 -2.890625 4.070312 -2.710938 4.0625 -2.640625 C 4 -2.335938 4.015625 -2.1875 4.109375 -2.1875 C 4.140625 -2.1875 4.160156 -2.171875 4.171875 -2.140625 C 4.179688 -2.109375 4.175781 -1.984375 4.15625 -1.765625 C 4.132812 -1.460938 4.113281 -1.171875 4.09375 -0.890625 C 4.070312 -0.617188 4.035156 -0.332031 3.984375 -0.03125 C 3.878906 0.40625 3.796875 0.691406 3.734375 0.828125 C 3.691406 0.929688 3.625 1.039062 3.53125 1.15625 C 3.4375 1.269531 3.367188 1.328125 3.328125 1.328125 C 3.304688 1.328125 3.253906 1.363281 3.171875 1.4375 C 3.085938 1.507812 2.953125 1.578125 2.765625 1.640625 L 2.5 1.765625 L 2.265625 1.625 C 1.984375 1.46875 1.738281 1.265625 1.53125 1.015625 C 1.332031 0.765625 1.195312 0.484375 1.125 0.171875 L 1.03125 -0.15625 L 1.03125 -1.40625 C 1.03125 -2.207031 1.046875 -3.175781 1.078125 -4.3125 C 1.160156 -6.457031 1.175781 -7.695312 1.125 -8.03125 C 1.0625 -8.351562 0.957031 -8.5625 0.8125 -8.65625 C 0.6875 -8.757812 0.703125 -8.890625 0.859375 -9.046875 C 0.941406 -9.148438 1.035156 -9.222656 1.140625 -9.265625 C 1.253906 -9.316406 1.378906 -9.363281 1.515625 -9.40625 C 1.671875 -9.4375 1.785156 -9.476562 1.859375 -9.53125 C 1.910156 -9.5625 1.953125 -9.582031 1.984375 -9.59375 C 2.023438 -9.613281 2.066406 -9.628906 2.109375 -9.640625 Z M 2.65625 -13.828125 C 3.1875 -13.828125 3.644531 -13.609375 4.03125 -13.171875 C 4.09375 -13.078125 4.148438 -12.988281 4.203125 -12.90625 C 4.265625 -12.832031 4.320312 -12.75 4.375 -12.65625 C 4.46875 -12.488281 4.515625 -12.296875 4.515625 -12.078125 C 4.515625 -11.835938 4.453125 -11.625 4.328125 -11.4375 C 4.203125 -11.25 4.046875 -11.09375 3.859375 -10.96875 C 3.671875 -10.851562 3.460938 -10.765625 3.234375 -10.703125 C 3.015625 -10.648438 2.796875 -10.625 2.578125 -10.625 C 2.316406 -10.625 2.070312 -10.664062 1.84375 -10.75 C 1.570312 -10.851562 1.398438 -10.929688 1.328125 -10.984375 C 1.242188 -11.054688 1.171875 -11.160156 1.109375 -11.296875 C 1.054688 -11.441406 1.007812 -11.597656 0.96875 -11.765625 C 0.925781 -11.929688 0.894531 -12.09375 0.875 -12.25 C 0.863281 -12.414062 0.859375 -12.5625 0.859375 -12.6875 C 0.828125 -12.914062 0.953125 -13.140625 1.234375 -13.359375 C 1.453125 -13.535156 1.664062 -13.65625 1.875 -13.71875 C 2.09375 -13.789062 2.351562 -13.828125 2.65625 -13.828125 Z M 2.65625 -13.828125 "/></g></g></g><g fill="#ffffff" fill-opacity="1"><g transform="translate(183.462509, 36.96321)"><g><path d="M 6.421875 -7.59375 C 5.765625 -7.59375 5.238281 -7.394531 4.84375 -7 C 4.457031 -6.601562 4.15625 -6.125 3.9375 -5.5625 L 3.8125 -5.25 L 3.9375 -5.25 C 4.082031 -5.25 4.257812 -5.257812 4.46875 -5.28125 C 4.675781 -5.3125 4.890625 -5.34375 5.109375 -5.375 C 5.328125 -5.414062 5.535156 -5.457031 5.734375 -5.5 C 5.941406 -5.550781 6.117188 -5.597656 6.265625 -5.640625 C 7.117188 -5.867188 7.546875 -6.25 7.546875 -6.78125 C 7.546875 -6.957031 7.515625 -7.097656 7.453125 -7.203125 C 7.390625 -7.304688 7.304688 -7.382812 7.203125 -7.4375 C 7.097656 -7.5 6.976562 -7.539062 6.84375 -7.5625 C 6.707031 -7.582031 6.566406 -7.59375 6.421875 -7.59375 Z M 6.421875 -9.890625 C 7.117188 -9.890625 7.785156 -9.753906 8.421875 -9.484375 C 9.066406 -9.210938 9.597656 -8.769531 10.015625 -8.15625 C 10.367188 -7.625 10.550781 -7.070312 10.5625 -6.5 C 10.582031 -6.007812 10.484375 -5.546875 10.265625 -5.109375 C 10.148438 -4.921875 9.972656 -4.707031 9.734375 -4.46875 C 9.628906 -4.363281 9.535156 -4.273438 9.453125 -4.203125 C 9.367188 -4.140625 9.296875 -4.070312 9.234375 -4 C 9.035156 -3.851562 8.742188 -3.71875 8.359375 -3.59375 C 7.984375 -3.476562 7.578125 -3.378906 7.140625 -3.296875 C 6.703125 -3.210938 6.273438 -3.148438 5.859375 -3.109375 C 5.441406 -3.078125 5.097656 -3.0625 4.828125 -3.0625 C 4.546875 -3.050781 4.367188 -3.03125 4.296875 -3 C 4.222656 -2.976562 4.140625 -2.972656 4.046875 -2.984375 C 3.953125 -2.992188 3.878906 -2.992188 3.828125 -2.984375 C 3.773438 -2.972656 3.742188 -2.957031 3.734375 -2.9375 C 3.734375 -2.914062 3.738281 -2.851562 3.75 -2.75 C 3.78125 -2.4375 3.894531 -2.171875 4.09375 -1.953125 C 4.300781 -1.742188 4.546875 -1.570312 4.828125 -1.4375 C 5.117188 -1.300781 5.425781 -1.203125 5.75 -1.140625 C 6.070312 -1.078125 6.363281 -1.046875 6.625 -1.046875 C 7.4375 -1.046875 8.207031 -1.296875 8.9375 -1.796875 C 9.007812 -1.835938 9.078125 -1.894531 9.140625 -1.96875 C 9.210938 -2.039062 9.273438 -2.109375 9.328125 -2.171875 C 9.390625 -2.242188 9.441406 -2.3125 9.484375 -2.375 C 9.535156 -2.445312 9.5625 -2.492188 9.5625 -2.515625 C 9.5625 -2.597656 9.59375 -2.601562 9.65625 -2.53125 C 9.707031 -2.5 9.738281 -2.273438 9.75 -1.859375 C 9.769531 -1.640625 9.78125 -1.425781 9.78125 -1.21875 C 9.789062 -1.019531 9.789062 -0.828125 9.78125 -0.640625 C 9.78125 -0.222656 9.769531 0.015625 9.75 0.078125 C 9.6875 0.410156 9.503906 0.675781 9.203125 0.875 C 8.898438 1.082031 8.554688 1.238281 8.171875 1.34375 C 7.785156 1.457031 7.390625 1.53125 6.984375 1.5625 C 6.585938 1.601562 6.253906 1.625 5.984375 1.625 C 5.429688 1.613281 4.925781 1.566406 4.46875 1.484375 C 4.019531 1.410156 3.609375 1.273438 3.234375 1.078125 C 2.859375 0.890625 2.507812 0.628906 2.1875 0.296875 C 1.875 -0.0234375 1.578125 -0.453125 1.296875 -0.984375 C 0.816406 -1.898438 0.578125 -2.894531 0.578125 -3.96875 C 0.578125 -5.15625 0.925781 -6.316406 1.625 -7.453125 C 1.851562 -7.867188 2.148438 -8.226562 2.515625 -8.53125 C 2.878906 -8.832031 3.273438 -9.082031 3.703125 -9.28125 C 4.140625 -9.476562 4.59375 -9.628906 5.0625 -9.734375 C 5.53125 -9.835938 5.984375 -9.890625 6.421875 -9.890625 Z M 6.421875 -9.890625 "/></g></g></g><g fill="#ffffff" fill-opacity="1"><g transform="translate(194.399569, 36.96321)"><g><path d="M 3.171875 -13.28125 C 3.328125 -13.28125 3.507812 -13.273438 3.71875 -13.265625 C 3.925781 -13.265625 4.128906 -13.238281 4.328125 -13.1875 C 4.523438 -13.144531 4.703125 -13.082031 4.859375 -13 C 5.023438 -12.914062 5.148438 -12.796875 5.234375 -12.640625 C 5.296875 -12.484375 5.316406 -12.347656 5.296875 -12.234375 C 5.285156 -12.171875 5.273438 -12.109375 5.265625 -12.046875 C 5.253906 -11.992188 5.234375 -11.9375 5.203125 -11.875 C 5.179688 -11.820312 5.128906 -11.722656 5.046875 -11.578125 C 4.972656 -11.429688 4.875 -11.242188 4.75 -11.015625 C 4.613281 -10.785156 4.503906 -10.597656 4.421875 -10.453125 C 4.335938 -10.304688 4.285156 -10.207031 4.265625 -10.15625 C 4.179688 -10.082031 4.070312 -9.910156 3.9375 -9.640625 C 3.78125 -9.390625 3.691406 -9.257812 3.671875 -9.25 C 3.640625 -9.238281 3.566406 -9.125 3.453125 -8.90625 C 3.203125 -8.476562 2.96875 -8.265625 2.75 -8.265625 C 2.226562 -8.242188 1.867188 -8.1875 1.671875 -8.09375 C 1.585938 -8.0625 1.519531 -8.046875 1.46875 -8.046875 C 1.40625 -8.046875 1.367188 -8.09375 1.359375 -8.1875 C 1.359375 -8.332031 1.53125 -9.238281 1.875 -10.90625 C 1.988281 -11.457031 2.066406 -11.875 2.109375 -12.15625 C 2.140625 -12.382812 2.125 -12.570312 2.0625 -12.71875 C 2 -12.863281 1.988281 -12.945312 2.03125 -12.96875 C 2.082031 -13.019531 2.15625 -13.066406 2.25 -13.109375 C 2.351562 -13.148438 2.457031 -13.179688 2.5625 -13.203125 C 2.675781 -13.222656 2.785156 -13.238281 2.890625 -13.25 C 3.003906 -13.269531 3.097656 -13.28125 3.171875 -13.28125 Z M 3.171875 -13.28125 "/></g></g></g><g fill="#ffffff" fill-opacity="1"><g transform="translate(200.787569, 36.96321)"><g><path d="M 5.65625 -9.8125 C 5.738281 -9.8125 5.894531 -9.8125 6.125 -9.8125 C 6.351562 -9.8125 6.59375 -9.804688 6.84375 -9.796875 C 7.09375 -9.785156 7.320312 -9.765625 7.53125 -9.734375 C 7.75 -9.710938 7.890625 -9.675781 7.953125 -9.625 C 8.015625 -9.582031 8.078125 -9.507812 8.140625 -9.40625 C 8.210938 -9.300781 8.300781 -9.171875 8.40625 -9.015625 C 8.488281 -8.890625 8.554688 -8.78125 8.609375 -8.6875 C 8.660156 -8.601562 8.703125 -8.523438 8.734375 -8.453125 C 8.773438 -8.378906 8.800781 -8.3125 8.8125 -8.25 C 8.820312 -8.1875 8.828125 -8.109375 8.828125 -8.015625 C 8.828125 -7.441406 8.566406 -7.085938 8.046875 -6.953125 C 8.015625 -6.941406 7.945312 -6.925781 7.84375 -6.90625 C 7.738281 -6.894531 7.625 -6.882812 7.5 -6.875 C 7.375 -6.863281 7.253906 -6.847656 7.140625 -6.828125 C 7.035156 -6.816406 6.96875 -6.8125 6.9375 -6.8125 C 6.914062 -6.8125 6.90625 -6.832031 6.90625 -6.875 C 6.90625 -6.914062 6.859375 -6.941406 6.765625 -6.953125 C 6.671875 -6.972656 6.613281 -7.003906 6.59375 -7.046875 C 6.582031 -7.140625 6.484375 -7.1875 6.296875 -7.1875 C 6.203125 -7.1875 6.148438 -7.195312 6.140625 -7.21875 C 6.128906 -7.25 6.085938 -7.253906 6.015625 -7.234375 C 5.984375 -7.222656 5.90625 -7.238281 5.78125 -7.28125 C 5.6875 -7.300781 5.59375 -7.316406 5.5 -7.328125 C 5.40625 -7.347656 5.316406 -7.359375 5.234375 -7.359375 C 4.921875 -7.359375 4.644531 -7.285156 4.40625 -7.140625 C 4.164062 -7.003906 3.972656 -6.785156 3.828125 -6.484375 C 3.742188 -6.273438 3.707031 -6.160156 3.71875 -6.140625 C 3.757812 -6.097656 3.878906 -6.035156 4.078125 -5.953125 C 4.273438 -5.867188 4.453125 -5.800781 4.609375 -5.75 C 4.722656 -5.726562 4.84375 -5.695312 4.96875 -5.65625 C 5.101562 -5.613281 5.238281 -5.582031 5.375 -5.5625 C 6.476562 -5.320312 7.320312 -4.960938 7.90625 -4.484375 C 8.414062 -4.066406 8.757812 -3.644531 8.9375 -3.21875 C 9.113281 -2.789062 9.148438 -2.285156 9.046875 -1.703125 C 8.898438 -0.785156 8.398438 -0.0195312 7.546875 0.59375 C 7.316406 0.769531 7.03125 0.921875 6.6875 1.046875 C 6.351562 1.171875 6 1.28125 5.625 1.375 C 5.257812 1.476562 4.890625 1.554688 4.515625 1.609375 C 4.148438 1.660156 3.828125 1.6875 3.546875 1.6875 C 2.753906 1.6875 2.144531 1.550781 1.71875 1.28125 C 1.09375 0.90625 0.71875 0.585938 0.59375 0.328125 C 0.46875 0.046875 0.453125 -0.164062 0.546875 -0.3125 C 0.578125 -0.375 0.59375 -0.457031 0.59375 -0.5625 C 0.613281 -0.625 0.625 -0.6875 0.625 -0.75 C 0.632812 -0.820312 0.644531 -0.890625 0.65625 -0.953125 C 0.695312 -1.054688 0.722656 -1.191406 0.734375 -1.359375 C 0.765625 -1.484375 0.789062 -1.5625 0.8125 -1.59375 C 0.84375 -1.625 0.859375 -1.707031 0.859375 -1.84375 C 0.859375 -1.914062 0.859375 -1.960938 0.859375 -1.984375 C 0.867188 -2.003906 0.878906 -2.019531 0.890625 -2.03125 C 0.898438 -2.039062 0.90625 -2.0625 0.90625 -2.09375 C 0.914062 -2.132812 0.921875 -2.195312 0.921875 -2.28125 L 0.953125 -2.484375 L 0.96875 -2.453125 C 1.019531 -2.335938 1.050781 -2.3125 1.0625 -2.375 C 1.070312 -2.394531 1.078125 -2.414062 1.078125 -2.4375 C 1.078125 -2.476562 1.085938 -2.484375 1.109375 -2.453125 C 1.117188 -2.441406 1.117188 -2.429688 1.109375 -2.421875 C 1.109375 -2.410156 1.113281 -2.390625 1.125 -2.359375 C 1.3125 -1.847656 1.578125 -1.476562 1.921875 -1.25 C 2.265625 -1.03125 2.707031 -0.921875 3.25 -0.921875 C 3.507812 -0.921875 3.773438 -0.945312 4.046875 -1 C 4.316406 -1.050781 4.585938 -1.128906 4.859375 -1.234375 C 5.378906 -1.429688 5.640625 -1.796875 5.640625 -2.328125 C 5.640625 -2.492188 5.613281 -2.601562 5.5625 -2.65625 C 5.382812 -2.820312 4.710938 -3 3.546875 -3.1875 C 3.140625 -3.28125 2.925781 -3.34375 2.90625 -3.375 C 2.875 -3.394531 2.816406 -3.421875 2.734375 -3.453125 C 2.460938 -3.472656 2.164062 -3.609375 1.84375 -3.859375 C 1.53125 -4.109375 1.265625 -4.394531 1.046875 -4.71875 C 0.828125 -5.0625 0.707031 -5.46875 0.6875 -5.9375 C 0.664062 -6.414062 0.742188 -6.910156 0.921875 -7.421875 C 1.046875 -7.773438 1.273438 -8.109375 1.609375 -8.421875 C 1.953125 -8.742188 2.296875 -8.988281 2.640625 -9.15625 C 3.078125 -9.382812 3.566406 -9.550781 4.109375 -9.65625 C 4.648438 -9.757812 5.164062 -9.8125 5.65625 -9.8125 Z M 5.65625 -9.8125 "/></g></g></g><g fill="#ffffff" fill-opacity="1"><g transform="translate(210.098579, 36.96321)"><g/></g></g><g fill="#ffffff" fill-opacity="1"><g transform="translate(214.937963, 36.96321)"><g><path d="M 13.109375 -13.421875 C 13.242188 -13.441406 13.398438 -13.453125 13.578125 -13.453125 C 13.753906 -13.453125 13.953125 -13.441406 14.171875 -13.421875 C 14.453125 -13.390625 14.691406 -13.34375 14.890625 -13.28125 C 15.097656 -13.21875 15.265625 -13.144531 15.390625 -13.0625 C 15.503906 -13 15.609375 -12.960938 15.703125 -12.953125 C 15.867188 -12.910156 16 -12.75 16.09375 -12.46875 C 16.164062 -12.269531 16.203125 -10.117188 16.203125 -6.015625 C 16.203125 -4.335938 16.179688 -2.921875 16.140625 -1.765625 C 16.109375 -0.578125 16.03125 0.21875 15.90625 0.625 C 15.78125 1.0625 15.644531 1.28125 15.5 1.28125 C 15.445312 1.28125 15.40625 1.304688 15.375 1.359375 C 15.34375 1.410156 14.925781 1.4375 14.125 1.4375 C 13.71875 1.4375 13.40625 1.425781 13.1875 1.40625 C 12.96875 1.394531 12.835938 1.382812 12.796875 1.375 C 12.703125 1.34375 12.601562 1.28125 12.5 1.1875 C 12.445312 1.132812 12.410156 1.085938 12.390625 1.046875 C 12.378906 1.003906 12.363281 0.960938 12.34375 0.921875 C 12.332031 0.878906 12.316406 0.828125 12.296875 0.765625 C 12.285156 0.703125 12.253906 0.617188 12.203125 0.515625 C 12.128906 0.390625 12.0625 0.257812 12 0.125 C 11.9375 0 11.875 -0.140625 11.8125 -0.296875 C 11.75 -0.460938 11.679688 -0.601562 11.609375 -0.71875 C 11.546875 -0.832031 11.488281 -0.925781 11.4375 -1 C 11.351562 -1.15625 11.3125 -1.234375 11.3125 -1.234375 C 11.332031 -1.234375 11.359375 -1.226562 11.390625 -1.21875 C 11.421875 -1.207031 11.4375 -1.207031 11.4375 -1.21875 C 11.4375 -1.269531 11.421875 -1.34375 11.390625 -1.4375 C 11.359375 -1.539062 11.335938 -1.597656 11.328125 -1.609375 L 11.640625 -1.5625 L 11.65625 -1.5625 C 11.675781 -1.550781 11.71875 -1.539062 11.78125 -1.53125 C 11.84375 -1.53125 11.914062 -1.515625 12 -1.484375 C 12.0625 -1.472656 12.125 -1.460938 12.1875 -1.453125 C 12.25 -1.441406 12.289062 -1.425781 12.3125 -1.40625 C 12.40625 -1.375 12.457031 -1.425781 12.46875 -1.5625 C 12.476562 -1.632812 12.484375 -1.75 12.484375 -1.90625 C 12.492188 -2.070312 12.507812 -2.300781 12.53125 -2.59375 C 12.53125 -2.757812 12.53125 -2.96875 12.53125 -3.21875 C 12.539062 -3.46875 12.546875 -3.722656 12.546875 -3.984375 C 12.554688 -4.253906 12.5625 -4.515625 12.5625 -4.765625 C 12.570312 -5.023438 12.578125 -5.238281 12.578125 -5.40625 C 12.597656 -7.070312 12.597656 -8.019531 12.578125 -8.25 C 12.566406 -8.519531 12.546875 -8.65625 12.515625 -8.65625 C 12.492188 -8.65625 12.484375 -8.632812 12.484375 -8.59375 C 12.484375 -8.582031 12.46875 -8.535156 12.4375 -8.453125 C 12.40625 -8.367188 12.34375 -8.234375 12.25 -8.046875 C 12.082031 -7.722656 11.921875 -7.414062 11.765625 -7.125 C 11.609375 -6.84375 11.46875 -6.550781 11.34375 -6.25 C 11.289062 -6.144531 11.234375 -6.03125 11.171875 -5.90625 C 11.117188 -5.789062 11.039062 -5.640625 10.9375 -5.453125 C 10.925781 -5.421875 10.894531 -5.363281 10.84375 -5.28125 C 10.789062 -5.195312 10.738281 -5.101562 10.6875 -5 C 10.644531 -4.90625 10.601562 -4.8125 10.5625 -4.71875 C 10.519531 -4.632812 10.484375 -4.570312 10.453125 -4.53125 C 10.253906 -4.113281 10.039062 -3.816406 9.8125 -3.640625 C 9.59375 -3.460938 9.3125 -3.332031 8.96875 -3.25 C 8.601562 -3.175781 8.363281 -3.148438 8.25 -3.171875 C 8.082031 -3.210938 7.882812 -3.335938 7.65625 -3.546875 C 7.425781 -3.753906 7.203125 -3.988281 6.984375 -4.25 C 6.765625 -4.507812 6.570312 -4.78125 6.40625 -5.0625 C 6.25 -5.34375 6.15625 -5.578125 6.125 -5.765625 C 6.101562 -5.859375 6.039062 -6.050781 5.9375 -6.34375 C 5.832031 -6.632812 5.71875 -6.941406 5.59375 -7.265625 C 5.476562 -7.585938 5.363281 -7.875 5.25 -8.125 C 5.144531 -8.375 5.066406 -8.503906 5.015625 -8.515625 C 4.960938 -8.515625 4.914062 -8.492188 4.875 -8.453125 C 4.820312 -8.398438 4.785156 -8.203125 4.765625 -7.859375 C 4.753906 -7.578125 4.734375 -7.367188 4.703125 -7.234375 C 4.691406 -7.179688 4.679688 -7.128906 4.671875 -7.078125 C 4.671875 -7.035156 4.671875 -6.972656 4.671875 -6.890625 C 4.671875 -6.816406 4.664062 -6.738281 4.65625 -6.65625 C 4.644531 -6.582031 4.632812 -6.492188 4.625 -6.390625 C 4.613281 -6.234375 4.59375 -6.054688 4.5625 -5.859375 C 4.5625 -5.804688 4.554688 -5.671875 4.546875 -5.453125 C 4.535156 -5.234375 4.523438 -5.0625 4.515625 -4.9375 C 4.492188 -4.820312 4.476562 -4.671875 4.46875 -4.484375 C 4.46875 -4.296875 4.46875 -4.09375 4.46875 -3.875 C 4.46875 -3.664062 4.46875 -3.460938 4.46875 -3.265625 C 4.476562 -3.066406 4.484375 -2.898438 4.484375 -2.765625 C 4.503906 -2.472656 4.515625 -2.226562 4.515625 -2.03125 C 4.523438 -1.84375 4.523438 -1.695312 4.515625 -1.59375 C 4.484375 -1.132812 4.5 -0.519531 4.5625 0.25 C 4.59375 0.5625 4.476562 0.851562 4.21875 1.125 C 3.945312 1.40625 3.566406 1.578125 3.078125 1.640625 C 2.972656 1.660156 2.894531 1.675781 2.84375 1.6875 C 2.800781 1.695312 2.769531 1.707031 2.75 1.71875 C 2.71875 1.71875 2.617188 1.679688 2.453125 1.609375 C 2.296875 1.546875 2.128906 1.410156 1.953125 1.203125 C 1.859375 1.097656 1.773438 1.007812 1.703125 0.9375 C 1.640625 0.863281 1.578125 0.796875 1.515625 0.734375 C 1.421875 0.660156 1.34375 0.550781 1.28125 0.40625 C 1.226562 0.289062 1.179688 0.15625 1.140625 0 C 1.097656 -0.164062 1.085938 -0.253906 1.109375 -0.265625 C 1.117188 -0.285156 1.132812 -1.054688 1.15625 -2.578125 C 1.175781 -4.097656 1.195312 -5.148438 1.21875 -5.734375 C 1.289062 -7.210938 1.335938 -8.414062 1.359375 -9.34375 C 1.378906 -10.28125 1.378906 -10.9375 1.359375 -11.3125 C 1.296875 -12.050781 1.203125 -12.515625 1.078125 -12.703125 C 1.046875 -12.785156 1.035156 -12.832031 1.046875 -12.84375 C 1.054688 -12.863281 1.21875 -12.898438 1.53125 -12.953125 C 1.894531 -13.015625 2.148438 -13.050781 2.296875 -13.0625 C 2.535156 -13.09375 2.660156 -13.101562 2.671875 -13.09375 C 2.691406 -13.0625 2.804688 -13.046875 3.015625 -13.046875 C 3.597656 -13.035156 4.015625 -12.929688 4.265625 -12.734375 C 4.390625 -12.648438 4.535156 -12.585938 4.703125 -12.546875 C 5.085938 -12.453125 5.410156 -12.363281 5.671875 -12.28125 C 5.929688 -12.195312 6.15625 -12.082031 6.34375 -11.9375 C 6.53125 -11.800781 6.691406 -11.613281 6.828125 -11.375 C 6.972656 -11.144531 7.128906 -10.835938 7.296875 -10.453125 C 7.359375 -10.285156 7.410156 -10.144531 7.453125 -10.03125 C 7.503906 -9.914062 7.550781 -9.816406 7.59375 -9.734375 C 7.945312 -8.953125 8.25 -8.1875 8.5 -7.4375 L 8.578125 -7.265625 L 8.640625 -7.359375 C 8.710938 -7.472656 8.8125 -7.660156 8.9375 -7.921875 C 9.070312 -8.191406 9.21875 -8.492188 9.375 -8.828125 C 9.53125 -9.160156 9.691406 -9.507812 9.859375 -9.875 C 10.023438 -10.25 10.175781 -10.597656 10.3125 -10.921875 C 10.445312 -11.253906 10.554688 -11.546875 10.640625 -11.796875 C 10.734375 -12.046875 10.78125 -12.222656 10.78125 -12.328125 C 10.789062 -12.410156 10.816406 -12.46875 10.859375 -12.5 C 10.898438 -12.53125 10.972656 -12.582031 11.078125 -12.65625 C 11.148438 -12.707031 11.265625 -12.769531 11.421875 -12.84375 C 11.578125 -12.925781 11.734375 -13.003906 11.890625 -13.078125 C 12.054688 -13.148438 12.21875 -13.210938 12.375 -13.265625 C 12.53125 -13.316406 12.648438 -13.34375 12.734375 -13.34375 C 12.765625 -13.34375 12.8125 -13.347656 12.875 -13.359375 C 12.9375 -13.367188 13.015625 -13.390625 13.109375 -13.421875 Z M 13.109375 -13.421875 "/></g></g></g><g fill="#ffffff" fill-opacity="1"><g transform="translate(232.088841, 36.96321)"><g><path d="M 6.53125 -3.65625 C 6.34375 -3.6875 6.160156 -3.679688 5.984375 -3.640625 C 5.816406 -3.609375 5.65625 -3.5625 5.5 -3.5 C 5.332031 -3.425781 5.144531 -3.320312 4.9375 -3.1875 C 4.726562 -3.0625 4.59375 -2.953125 4.53125 -2.859375 C 4.382812 -2.679688 4.28125 -2.472656 4.21875 -2.234375 C 4.164062 -1.992188 4.171875 -1.789062 4.234375 -1.625 C 4.273438 -1.5 4.375 -1.410156 4.53125 -1.359375 C 4.90625 -1.171875 5.285156 -1.128906 5.671875 -1.234375 C 5.878906 -1.273438 6.078125 -1.332031 6.265625 -1.40625 L 6.5625 -1.53125 L 6.578125 -2.125 C 6.578125 -2.238281 6.578125 -2.382812 6.578125 -2.5625 C 6.578125 -2.75 6.582031 -2.957031 6.59375 -3.1875 L 6.640625 -3.640625 Z M 5.453125 -9.65625 C 5.523438 -9.6875 5.816406 -9.6875 6.328125 -9.65625 C 6.816406 -9.65625 7.191406 -9.625 7.453125 -9.5625 C 7.671875 -9.5 7.875 -9.429688 8.0625 -9.359375 C 8.25 -9.285156 8.398438 -9.210938 8.515625 -9.140625 C 9.265625 -8.648438 9.773438 -8.078125 10.046875 -7.421875 C 10.140625 -7.179688 10.203125 -6.90625 10.234375 -6.59375 C 10.285156 -6.070312 10.21875 -5.175781 10.03125 -3.90625 C 9.925781 -3.257812 9.851562 -2.742188 9.8125 -2.359375 C 9.769531 -1.972656 9.765625 -1.695312 9.796875 -1.53125 C 9.835938 -1.257812 9.914062 -1.019531 10.03125 -0.8125 C 10.050781 -0.789062 10.070312 -0.757812 10.09375 -0.71875 C 10.113281 -0.6875 10.132812 -0.664062 10.15625 -0.65625 C 10.257812 -0.601562 10.40625 -0.640625 10.59375 -0.765625 C 10.78125 -0.890625 10.914062 -1.03125 11 -1.1875 C 11.03125 -1.257812 11.050781 -1.296875 11.0625 -1.296875 C 11.082031 -1.304688 11.101562 -1.296875 11.125 -1.265625 C 11.15625 -1.210938 11.175781 -1.191406 11.1875 -1.203125 L 11.203125 -1.15625 C 11.191406 -1.125 11.1875 -1.054688 11.1875 -0.953125 C 11.175781 -0.867188 11.171875 -0.816406 11.171875 -0.796875 C 11.179688 -0.785156 11.210938 -0.78125 11.265625 -0.78125 C 11.328125 -0.78125 11.34375 -0.765625 11.3125 -0.734375 C 11.28125 -0.710938 11.242188 -0.675781 11.203125 -0.625 C 11.171875 -0.570312 11.132812 -0.492188 11.09375 -0.390625 C 10.988281 -0.179688 10.894531 0.00390625 10.8125 0.171875 C 10.726562 0.335938 10.632812 0.488281 10.53125 0.625 C 10.375 0.8125 10.1875 0.96875 9.96875 1.09375 C 9.75 1.21875 9.550781 1.289062 9.375 1.3125 C 9.269531 1.320312 9.203125 1.347656 9.171875 1.390625 C 9.140625 1.429688 9.109375 1.453125 9.078125 1.453125 C 9.035156 1.453125 9.007812 1.460938 9 1.484375 C 8.988281 1.515625 8.878906 1.535156 8.671875 1.546875 C 8.460938 1.578125 8.296875 1.550781 8.171875 1.46875 C 7.691406 1.238281 7.320312 0.835938 7.0625 0.265625 L 6.9375 0.03125 L 6.578125 0.375 C 6.335938 0.601562 6.125 0.785156 5.9375 0.921875 C 5.757812 1.054688 5.597656 1.15625 5.453125 1.21875 C 5.046875 1.425781 4.585938 1.53125 4.078125 1.53125 C 3.785156 1.539062 3.523438 1.507812 3.296875 1.4375 C 2.898438 1.320312 2.535156 1.144531 2.203125 0.90625 C 1.867188 0.664062 1.601562 0.390625 1.40625 0.078125 C 1.257812 -0.171875 1.148438 -0.390625 1.078125 -0.578125 C 1.015625 -0.796875 0.976562 -1.097656 0.96875 -1.484375 C 0.957031 -1.890625 0.976562 -2.210938 1.03125 -2.453125 C 1.164062 -3.066406 1.519531 -3.648438 2.09375 -4.203125 C 2.207031 -4.316406 2.304688 -4.410156 2.390625 -4.484375 C 2.472656 -4.566406 2.554688 -4.632812 2.640625 -4.6875 C 2.722656 -4.75 2.816406 -4.804688 2.921875 -4.859375 C 3.023438 -4.921875 3.160156 -4.992188 3.328125 -5.078125 C 3.753906 -5.296875 4.269531 -5.457031 4.875 -5.5625 C 5.476562 -5.675781 6.0625 -5.710938 6.625 -5.671875 L 6.875 -5.65625 L 6.890625 -5.890625 C 6.898438 -6.242188 6.847656 -6.597656 6.734375 -6.953125 C 6.671875 -7.085938 6.59375 -7.179688 6.5 -7.234375 C 6.414062 -7.285156 6.273438 -7.328125 6.078125 -7.359375 C 5.816406 -7.378906 5.507812 -7.347656 5.15625 -7.265625 C 4.800781 -7.191406 4.488281 -7.085938 4.21875 -6.953125 C 4.164062 -6.921875 4.109375 -6.878906 4.046875 -6.828125 C 3.984375 -6.773438 3.910156 -6.71875 3.828125 -6.65625 C 3.660156 -6.5 3.578125 -6.414062 3.578125 -6.40625 C 3.578125 -6.382812 3.53125 -6.332031 3.4375 -6.25 C 3.34375 -6.164062 3.253906 -6.085938 3.171875 -6.015625 C 2.929688 -5.859375 2.71875 -5.816406 2.53125 -5.890625 C 2.300781 -5.972656 2.125 -6.148438 2 -6.421875 C 1.96875 -6.472656 1.9375 -6.519531 1.90625 -6.5625 C 1.875 -6.613281 1.84375 -6.648438 1.8125 -6.671875 C 1.75 -6.753906 1.703125 -6.875 1.671875 -7.03125 C 1.648438 -7.195312 1.628906 -7.3125 1.609375 -7.375 C 1.523438 -7.519531 1.550781 -7.71875 1.6875 -7.96875 C 1.820312 -8.269531 1.988281 -8.472656 2.1875 -8.578125 C 2.238281 -8.597656 2.285156 -8.617188 2.328125 -8.640625 C 2.378906 -8.671875 2.421875 -8.707031 2.453125 -8.75 C 2.535156 -8.8125 2.664062 -8.890625 2.84375 -8.984375 C 3.019531 -9.078125 3.238281 -9.164062 3.5 -9.25 C 3.96875 -9.394531 4.492188 -9.515625 5.078125 -9.609375 C 5.140625 -9.617188 5.210938 -9.628906 5.296875 -9.640625 C 5.390625 -9.648438 5.441406 -9.65625 5.453125 -9.65625 Z M 5.453125 -9.65625 "/></g></g></g><g fill="#ffffff" fill-opacity="1"><g transform="translate(243.50984, 36.96321)"><g><path d="M 3.703125 -13.03125 C 3.765625 -13.050781 3.960938 -13.0625 4.296875 -13.0625 C 4.460938 -13.0625 4.648438 -13.0625 4.859375 -13.0625 C 5.078125 -13.0625 5.316406 -13.050781 5.578125 -13.03125 C 5.910156 -13.019531 6.113281 -12.96875 6.1875 -12.875 C 6.226562 -12.832031 6.34375 -12.78125 6.53125 -12.71875 C 6.664062 -12.675781 6.78125 -12.59375 6.875 -12.46875 C 7.0625 -12.132812 7.09375 -11.785156 6.96875 -11.421875 C 6.957031 -11.367188 6.945312 -11.316406 6.9375 -11.265625 C 6.9375 -11.222656 6.925781 -11.171875 6.90625 -11.109375 C 6.894531 -11.066406 6.875 -10.976562 6.84375 -10.84375 C 6.820312 -10.707031 6.796875 -10.566406 6.765625 -10.421875 C 6.734375 -10.273438 6.703125 -10.132812 6.671875 -10 C 6.648438 -9.875 6.640625 -9.800781 6.640625 -9.78125 C 6.648438 -9.757812 6.976562 -9.75 7.625 -9.75 C 7.945312 -9.75 8.207031 -9.753906 8.40625 -9.765625 C 8.613281 -9.773438 8.753906 -9.785156 8.828125 -9.796875 C 9.242188 -9.867188 9.507812 -9.789062 9.625 -9.5625 C 9.757812 -9.28125 9.859375 -9.046875 9.921875 -8.859375 C 9.992188 -8.679688 10.03125 -8.546875 10.03125 -8.453125 C 10.03125 -8.367188 10.050781 -8.273438 10.09375 -8.171875 C 10.125 -8.066406 10.125 -7.972656 10.09375 -7.890625 C 10.0625 -7.816406 9.972656 -7.707031 9.828125 -7.5625 C 9.679688 -7.414062 9.53125 -7.316406 9.375 -7.265625 C 9.0625 -7.128906 8.859375 -7.0625 8.765625 -7.0625 C 8.703125 -7.0625 8.675781 -7.046875 8.6875 -7.015625 C 8.707031 -6.992188 8.679688 -6.976562 8.609375 -6.96875 C 8.585938 -6.957031 8.5625 -6.953125 8.53125 -6.953125 C 8.5 -6.953125 8.457031 -6.945312 8.40625 -6.9375 C 8.34375 -6.9375 8.210938 -6.921875 8.015625 -6.890625 C 7.816406 -6.867188 7.613281 -6.835938 7.40625 -6.796875 C 7.207031 -6.753906 7.019531 -6.707031 6.84375 -6.65625 C 6.664062 -6.613281 6.5625 -6.570312 6.53125 -6.53125 C 6.457031 -6.445312 6.40625 -6.238281 6.375 -5.90625 C 6.34375 -5.582031 6.304688 -5.128906 6.265625 -4.546875 C 6.191406 -3.390625 6.175781 -2.492188 6.21875 -1.859375 L 6.25 -1.3125 L 6.390625 -1.296875 C 6.398438 -1.296875 6.441406 -1.289062 6.515625 -1.28125 C 6.597656 -1.269531 6.660156 -1.253906 6.703125 -1.234375 C 6.765625 -1.222656 6.851562 -1.226562 6.96875 -1.25 C 7.082031 -1.269531 7.21875 -1.289062 7.375 -1.3125 C 7.53125 -1.351562 7.664062 -1.390625 7.78125 -1.421875 C 7.894531 -1.453125 7.984375 -1.492188 8.046875 -1.546875 C 8.410156 -1.753906 8.625 -1.972656 8.6875 -2.203125 C 8.726562 -2.296875 8.773438 -2.316406 8.828125 -2.265625 C 8.847656 -2.222656 8.894531 -2.222656 8.96875 -2.265625 L 9.046875 -2.328125 L 8.984375 -1.953125 C 8.953125 -1.847656 8.941406 -1.753906 8.953125 -1.671875 C 8.960938 -1.597656 8.957031 -1.550781 8.9375 -1.53125 C 8.9375 -1.488281 8.953125 -1.457031 8.984375 -1.4375 C 8.992188 -1.4375 9.015625 -1.4375 9.046875 -1.4375 C 9.046875 -1.414062 9.035156 -1.375 9.015625 -1.3125 C 8.992188 -1.257812 8.96875 -1.195312 8.9375 -1.125 C 8.914062 -1.0625 8.890625 -0.992188 8.859375 -0.921875 C 8.835938 -0.859375 8.828125 -0.816406 8.828125 -0.796875 C 8.660156 -0.441406 8.578125 -0.234375 8.578125 -0.171875 C 8.578125 -0.128906 8.535156 -0.0625 8.453125 0.03125 C 8.359375 0.132812 8.320312 0.207031 8.34375 0.25 C 8.351562 0.3125 8.226562 0.492188 7.96875 0.796875 C 7.6875 1.066406 7.335938 1.289062 6.921875 1.46875 C 6.515625 1.65625 6.125 1.75 5.75 1.75 C 5.625 1.75 5.515625 1.722656 5.421875 1.671875 C 5.335938 1.597656 5.210938 1.554688 5.046875 1.546875 C 4.847656 1.503906 4.65625 1.425781 4.46875 1.3125 C 4.28125 1.195312 4.109375 1.054688 3.953125 0.890625 C 3.796875 0.722656 3.660156 0.539062 3.546875 0.34375 C 3.429688 0.15625 3.347656 -0.0351562 3.296875 -0.234375 C 3.160156 -0.617188 3.078125 -1.375 3.046875 -2.5 C 3.023438 -2.71875 3.019531 -3.007812 3.03125 -3.375 C 3.039062 -3.75 3.050781 -4.1875 3.0625 -4.6875 L 3.09375 -6.125 L 3 -6.09375 C 2.957031 -6.082031 2.722656 -6.078125 2.296875 -6.078125 C 1.992188 -6.078125 1.765625 -6.09375 1.609375 -6.125 C 1.460938 -6.15625 1.304688 -6.222656 1.140625 -6.328125 C 1.046875 -6.390625 0.941406 -6.5 0.828125 -6.65625 C 0.722656 -6.8125 0.644531 -6.960938 0.59375 -7.109375 C 0.46875 -7.429688 0.394531 -7.832031 0.375 -8.3125 C 0.34375 -8.53125 0.363281 -8.703125 0.4375 -8.828125 C 0.488281 -8.941406 0.59375 -9.078125 0.75 -9.234375 C 0.894531 -9.378906 0.96875 -9.476562 0.96875 -9.53125 C 0.96875 -9.59375 1.003906 -9.609375 1.078125 -9.578125 C 1.179688 -9.554688 1.253906 -9.523438 1.296875 -9.484375 C 1.398438 -9.390625 1.566406 -9.328125 1.796875 -9.296875 C 2.035156 -9.265625 2.222656 -9.25 2.359375 -9.25 C 2.398438 -9.25 2.460938 -9.25 2.546875 -9.25 C 2.640625 -9.257812 2.734375 -9.269531 2.828125 -9.28125 C 2.929688 -9.289062 3.019531 -9.300781 3.09375 -9.3125 C 3.175781 -9.320312 3.222656 -9.332031 3.234375 -9.34375 C 3.253906 -9.375 3.25 -9.632812 3.21875 -10.125 C 3.21875 -10.1875 3.203125 -10.304688 3.171875 -10.484375 C 3.148438 -10.660156 3.125 -10.84375 3.09375 -11.03125 C 3.070312 -11.226562 3.039062 -11.410156 3 -11.578125 C 2.957031 -11.742188 2.925781 -11.851562 2.90625 -11.90625 C 2.863281 -11.945312 2.835938 -11.984375 2.828125 -12.015625 C 2.816406 -12.054688 2.800781 -12.097656 2.78125 -12.140625 C 2.75 -12.234375 2.75 -12.320312 2.78125 -12.40625 C 2.820312 -12.488281 2.875 -12.539062 2.9375 -12.5625 C 3.007812 -12.59375 3.078125 -12.640625 3.140625 -12.703125 C 3.253906 -12.859375 3.441406 -12.96875 3.703125 -13.03125 Z M 3.703125 -13.03125 "/></g></g></g><g fill="#ffffff" fill-opacity="1"><g transform="translate(253.595158, 36.96321)"><g><path d="M 2.828125 -14.0625 C 2.992188 -14.0625 3.101562 -14.046875 3.15625 -14.015625 C 3.257812 -13.992188 3.367188 -13.984375 3.484375 -13.984375 C 3.859375 -13.984375 4.171875 -13.910156 4.421875 -13.765625 C 4.671875 -13.617188 4.863281 -13.429688 5 -13.203125 C 5.082031 -13.035156 5.132812 -12.859375 5.15625 -12.671875 C 5.175781 -12.492188 5.175781 -12.316406 5.15625 -12.140625 C 5.132812 -12.023438 5.117188 -11.863281 5.109375 -11.65625 C 5.097656 -11.457031 5.082031 -11.25 5.0625 -11.03125 C 5.039062 -10.820312 5.019531 -10.613281 5 -10.40625 C 4.976562 -10.207031 4.960938 -10.050781 4.953125 -9.9375 C 4.941406 -9.695312 4.921875 -9.40625 4.890625 -9.0625 C 4.878906 -8.882812 4.863281 -8.75 4.84375 -8.65625 C 4.832031 -8.570312 4.832031 -8.53125 4.84375 -8.53125 C 4.875 -8.5625 4.925781 -8.597656 5 -8.640625 C 5.050781 -8.660156 5.109375 -8.691406 5.171875 -8.734375 C 5.242188 -8.773438 5.332031 -8.828125 5.4375 -8.890625 C 5.914062 -9.179688 6.285156 -9.382812 6.546875 -9.5 C 6.710938 -9.582031 6.882812 -9.640625 7.0625 -9.671875 C 7.25 -9.703125 7.429688 -9.71875 7.609375 -9.71875 C 8.265625 -9.71875 8.832031 -9.503906 9.3125 -9.078125 C 9.800781 -8.648438 10.148438 -8.140625 10.359375 -7.546875 C 10.421875 -7.359375 10.472656 -7.15625 10.515625 -6.9375 C 10.566406 -6.726562 10.601562 -6.492188 10.625 -6.234375 C 10.65625 -5.972656 10.675781 -5.640625 10.6875 -5.234375 C 10.707031 -4.828125 10.734375 -4.320312 10.765625 -3.71875 C 10.765625 -3.445312 10.765625 -3.171875 10.765625 -2.890625 C 10.773438 -2.617188 10.796875 -2.347656 10.828125 -2.078125 C 10.847656 -1.429688 10.847656 -1.066406 10.828125 -0.984375 C 10.796875 -0.921875 10.765625 -0.859375 10.734375 -0.796875 C 10.710938 -0.742188 10.691406 -0.675781 10.671875 -0.59375 C 10.578125 -0.414062 10.519531 -0.273438 10.5 -0.171875 C 10.46875 -0.0546875 10.425781 0.0507812 10.375 0.15625 C 10.332031 0.269531 10.28125 0.390625 10.21875 0.515625 C 10.195312 0.546875 10.175781 0.640625 10.15625 0.796875 C 10.144531 0.953125 10.101562 1.070312 10.03125 1.15625 C 9.988281 1.207031 9.910156 1.265625 9.796875 1.328125 C 9.691406 1.398438 9.570312 1.460938 9.4375 1.515625 C 9.300781 1.578125 9.164062 1.625 9.03125 1.65625 C 8.90625 1.695312 8.8125 1.71875 8.75 1.71875 C 8.632812 1.71875 8.507812 1.6875 8.375 1.625 C 8.34375 1.601562 8.285156 1.554688 8.203125 1.484375 C 8.117188 1.421875 8.03125 1.347656 7.9375 1.265625 C 7.84375 1.191406 7.753906 1.113281 7.671875 1.03125 C 7.597656 0.957031 7.550781 0.90625 7.53125 0.875 C 7.5 0.832031 7.460938 0.785156 7.421875 0.734375 C 7.390625 0.679688 7.347656 0.625 7.296875 0.5625 C 7.085938 0.3125 6.945312 0.0390625 6.875 -0.25 C 6.8125 -0.550781 6.832031 -0.769531 6.9375 -0.90625 C 6.988281 -0.957031 7.03125 -1.117188 7.0625 -1.390625 C 7.09375 -1.660156 7.113281 -1.957031 7.125 -2.28125 C 7.144531 -2.601562 7.160156 -2.910156 7.171875 -3.203125 C 7.179688 -3.492188 7.1875 -3.675781 7.1875 -3.75 C 7.1875 -4.226562 7.175781 -4.613281 7.15625 -4.90625 C 7.144531 -5.195312 7.128906 -5.421875 7.109375 -5.578125 C 7.015625 -6.085938 6.910156 -6.34375 6.796875 -6.34375 C 6.742188 -6.34375 6.664062 -6.3125 6.5625 -6.25 C 6.457031 -6.195312 6.347656 -6.128906 6.234375 -6.046875 C 6.117188 -5.960938 6.007812 -5.875 5.90625 -5.78125 C 5.800781 -5.695312 5.710938 -5.625 5.640625 -5.5625 C 5.398438 -5.351562 5.222656 -5.15625 5.109375 -4.96875 C 4.992188 -4.78125 4.898438 -4.519531 4.828125 -4.1875 C 4.753906 -4 4.710938 -3.835938 4.703125 -3.703125 C 4.660156 -3.554688 4.625 -3.390625 4.59375 -3.203125 C 4.570312 -3.015625 4.550781 -2.816406 4.53125 -2.609375 C 4.519531 -2.398438 4.503906 -2.195312 4.484375 -2 C 4.472656 -1.8125 4.460938 -1.640625 4.453125 -1.484375 C 4.390625 -0.648438 4.34375 -0.179688 4.3125 -0.078125 C 4.300781 -0.0234375 4.289062 0.0195312 4.28125 0.0625 C 4.28125 0.113281 4.273438 0.171875 4.265625 0.234375 C 4.265625 0.359375 4.242188 0.445312 4.203125 0.5 C 4.171875 0.5625 4.164062 0.609375 4.1875 0.640625 C 4.195312 0.648438 4.160156 0.707031 4.078125 0.8125 C 4.054688 0.84375 4.015625 0.890625 3.953125 0.953125 C 3.898438 1.015625 3.859375 1.054688 3.828125 1.078125 C 3.753906 1.160156 3.675781 1.207031 3.59375 1.21875 C 3.53125 1.226562 3.429688 1.28125 3.296875 1.375 C 3.171875 1.476562 3.019531 1.535156 2.84375 1.546875 C 2.664062 1.546875 2.507812 1.515625 2.375 1.453125 C 2.25 1.390625 2.050781 1.222656 1.78125 0.953125 C 1.457031 0.648438 1.253906 0.398438 1.171875 0.203125 C 1.085938 0.00390625 1.066406 -0.242188 1.109375 -0.546875 C 1.128906 -0.953125 1.160156 -1.351562 1.203125 -1.75 C 1.242188 -2.15625 1.273438 -2.566406 1.296875 -2.984375 C 1.410156 -4.597656 1.46875 -6.15625 1.46875 -7.65625 C 1.476562 -9.15625 1.429688 -10.492188 1.328125 -11.671875 C 1.265625 -12.347656 1.195312 -12.707031 1.125 -12.75 C 0.851562 -12.925781 0.878906 -13.175781 1.203125 -13.5 C 1.410156 -13.695312 1.660156 -13.835938 1.953125 -13.921875 C 2.253906 -14.015625 2.546875 -14.0625 2.828125 -14.0625 Z M 2.828125 -14.0625 "/></g></g></g><g fill="#ffffff" fill-opacity="1"><g transform="translate(265.03551, 36.96321)"><g/></g></g><g fill="#ffffff" fill-opacity="1"><g transform="translate(269.874894, 36.96321)"><g><path d="M 3.0625 -13.28125 C 3.195312 -13.289062 3.300781 -13.296875 3.375 -13.296875 C 3.457031 -13.296875 3.503906 -13.296875 3.515625 -13.296875 C 3.535156 -13.304688 3.578125 -13.296875 3.640625 -13.265625 C 3.691406 -13.222656 3.820312 -13.203125 4.03125 -13.203125 C 4.25 -13.203125 4.441406 -13.164062 4.609375 -13.09375 C 4.828125 -12.96875 4.988281 -12.832031 5.09375 -12.6875 C 5.15625 -12.59375 5.195312 -12.460938 5.21875 -12.296875 C 5.238281 -12.140625 5.242188 -12.015625 5.234375 -11.921875 C 5.203125 -11.859375 5.160156 -11.519531 5.109375 -10.90625 C 5.066406 -10.289062 5.003906 -9.410156 4.921875 -8.265625 C 4.785156 -6.785156 4.6875 -5.5625 4.625 -4.59375 C 4.570312 -3.632812 4.539062 -2.914062 4.53125 -2.4375 C 4.53125 -2.113281 4.523438 -1.945312 4.515625 -1.9375 C 4.472656 -1.894531 4.539062 -1.875 4.71875 -1.875 C 4.875 -1.875 5.164062 -1.894531 5.59375 -1.9375 C 6.71875 -2.007812 7.738281 -2.046875 8.65625 -2.046875 C 8.757812 -2.046875 8.914062 -2.046875 9.125 -2.046875 C 9.34375 -2.046875 9.5625 -2.039062 9.78125 -2.03125 C 10.007812 -2.03125 10.21875 -2.023438 10.40625 -2.015625 C 10.59375 -2.003906 10.710938 -1.984375 10.765625 -1.953125 C 10.992188 -1.859375 11.097656 -1.742188 11.078125 -1.609375 C 11.054688 -1.546875 11.066406 -1.476562 11.109375 -1.40625 C 11.148438 -1.332031 11.171875 -1.265625 11.171875 -1.203125 C 11.171875 -1.140625 11.203125 -1.054688 11.265625 -0.953125 C 11.328125 -0.847656 11.347656 -0.773438 11.328125 -0.734375 C 11.285156 -0.679688 11.289062 -0.625 11.34375 -0.5625 C 11.394531 -0.5 11.425781 -0.351562 11.4375 -0.125 C 11.445312 0.101562 11.421875 0.289062 11.359375 0.4375 C 11.304688 0.59375 11.191406 0.757812 11.015625 0.9375 C 10.847656 1.113281 10.679688 1.203125 10.515625 1.203125 C 10.421875 1.222656 10.367188 1.242188 10.359375 1.265625 C 10.328125 1.285156 9.421875 1.296875 7.640625 1.296875 C 6.753906 1.296875 6.0625 1.296875 5.5625 1.296875 C 5.070312 1.304688 4.753906 1.316406 4.609375 1.328125 C 4.503906 1.347656 4.332031 1.359375 4.09375 1.359375 C 3.851562 1.359375 3.546875 1.359375 3.171875 1.359375 C 2.910156 1.367188 2.703125 1.367188 2.546875 1.359375 C 2.398438 1.359375 2.289062 1.359375 2.21875 1.359375 C 2 1.316406 1.828125 1.242188 1.703125 1.140625 C 1.578125 1.035156 1.476562 0.910156 1.40625 0.765625 C 1.34375 0.617188 1.300781 0.457031 1.28125 0.28125 C 1.269531 0.101562 1.253906 -0.078125 1.234375 -0.265625 C 1.222656 -0.503906 1.21875 -0.875 1.21875 -1.375 C 1.21875 -1.875 1.234375 -2.515625 1.265625 -3.296875 C 1.328125 -5.703125 1.359375 -7.585938 1.359375 -8.953125 C 1.367188 -10.316406 1.347656 -11.1875 1.296875 -11.5625 C 1.273438 -11.8125 1.238281 -11.992188 1.1875 -12.109375 C 1.144531 -12.234375 1.070312 -12.347656 0.96875 -12.453125 L 0.796875 -12.640625 L 0.921875 -12.78125 C 1.179688 -13 1.476562 -13.113281 1.8125 -13.125 C 1.914062 -13.132812 2.015625 -13.144531 2.109375 -13.15625 C 2.210938 -13.175781 2.296875 -13.191406 2.359375 -13.203125 C 2.453125 -13.210938 2.554688 -13.222656 2.671875 -13.234375 C 2.785156 -13.253906 2.914062 -13.269531 3.0625 -13.28125 Z M 3.0625 -13.28125 "/></g></g></g><g fill="#ffffff" fill-opacity="1"><g transform="translate(281.431394, 36.96321)"><g><path d="M 6.53125 -3.65625 C 6.34375 -3.6875 6.160156 -3.679688 5.984375 -3.640625 C 5.816406 -3.609375 5.65625 -3.5625 5.5 -3.5 C 5.332031 -3.425781 5.144531 -3.320312 4.9375 -3.1875 C 4.726562 -3.0625 4.59375 -2.953125 4.53125 -2.859375 C 4.382812 -2.679688 4.28125 -2.472656 4.21875 -2.234375 C 4.164062 -1.992188 4.171875 -1.789062 4.234375 -1.625 C 4.273438 -1.5 4.375 -1.410156 4.53125 -1.359375 C 4.90625 -1.171875 5.285156 -1.128906 5.671875 -1.234375 C 5.878906 -1.273438 6.078125 -1.332031 6.265625 -1.40625 L 6.5625 -1.53125 L 6.578125 -2.125 C 6.578125 -2.238281 6.578125 -2.382812 6.578125 -2.5625 C 6.578125 -2.75 6.582031 -2.957031 6.59375 -3.1875 L 6.640625 -3.640625 Z M 5.453125 -9.65625 C 5.523438 -9.6875 5.816406 -9.6875 6.328125 -9.65625 C 6.816406 -9.65625 7.191406 -9.625 7.453125 -9.5625 C 7.671875 -9.5 7.875 -9.429688 8.0625 -9.359375 C 8.25 -9.285156 8.398438 -9.210938 8.515625 -9.140625 C 9.265625 -8.648438 9.773438 -8.078125 10.046875 -7.421875 C 10.140625 -7.179688 10.203125 -6.90625 10.234375 -6.59375 C 10.285156 -6.070312 10.21875 -5.175781 10.03125 -3.90625 C 9.925781 -3.257812 9.851562 -2.742188 9.8125 -2.359375 C 9.769531 -1.972656 9.765625 -1.695312 9.796875 -1.53125 C 9.835938 -1.257812 9.914062 -1.019531 10.03125 -0.8125 C 10.050781 -0.789062 10.070312 -0.757812 10.09375 -0.71875 C 10.113281 -0.6875 10.132812 -0.664062 10.15625 -0.65625 C 10.257812 -0.601562 10.40625 -0.640625 10.59375 -0.765625 C 10.78125 -0.890625 10.914062 -1.03125 11 -1.1875 C 11.03125 -1.257812 11.050781 -1.296875 11.0625 -1.296875 C 11.082031 -1.304688 11.101562 -1.296875 11.125 -1.265625 C 11.15625 -1.210938 11.175781 -1.191406 11.1875 -1.203125 L 11.203125 -1.15625 C 11.191406 -1.125 11.1875 -1.054688 11.1875 -0.953125 C 11.175781 -0.867188 11.171875 -0.816406 11.171875 -0.796875 C 11.179688 -0.785156 11.210938 -0.78125 11.265625 -0.78125 C 11.328125 -0.78125 11.34375 -0.765625 11.3125 -0.734375 C 11.28125 -0.710938 11.242188 -0.675781 11.203125 -0.625 C 11.171875 -0.570312 11.132812 -0.492188 11.09375 -0.390625 C 10.988281 -0.179688 10.894531 0.00390625 10.8125 0.171875 C 10.726562 0.335938 10.632812 0.488281 10.53125 0.625 C 10.375 0.8125 10.1875 0.96875 9.96875 1.09375 C 9.75 1.21875 9.550781 1.289062 9.375 1.3125 C 9.269531 1.320312 9.203125 1.347656 9.171875 1.390625 C 9.140625 1.429688 9.109375 1.453125 9.078125 1.453125 C 9.035156 1.453125 9.007812 1.460938 9 1.484375 C 8.988281 1.515625 8.878906 1.535156 8.671875 1.546875 C 8.460938 1.578125 8.296875 1.550781 8.171875 1.46875 C 7.691406 1.238281 7.320312 0.835938 7.0625 0.265625 L 6.9375 0.03125 L 6.578125 0.375 C 6.335938 0.601562 6.125 0.785156 5.9375 0.921875 C 5.757812 1.054688 5.597656 1.15625 5.453125 1.21875 C 5.046875 1.425781 4.585938 1.53125 4.078125 1.53125 C 3.785156 1.539062 3.523438 1.507812 3.296875 1.4375 C 2.898438 1.320312 2.535156 1.144531 2.203125 0.90625 C 1.867188 0.664062 1.601562 0.390625 1.40625 0.078125 C 1.257812 -0.171875 1.148438 -0.390625 1.078125 -0.578125 C 1.015625 -0.796875 0.976562 -1.097656 0.96875 -1.484375 C 0.957031 -1.890625 0.976562 -2.210938 1.03125 -2.453125 C 1.164062 -3.066406 1.519531 -3.648438 2.09375 -4.203125 C 2.207031 -4.316406 2.304688 -4.410156 2.390625 -4.484375 C 2.472656 -4.566406 2.554688 -4.632812 2.640625 -4.6875 C 2.722656 -4.75 2.816406 -4.804688 2.921875 -4.859375 C 3.023438 -4.921875 3.160156 -4.992188 3.328125 -5.078125 C 3.753906 -5.296875 4.269531 -5.457031 4.875 -5.5625 C 5.476562 -5.675781 6.0625 -5.710938 6.625 -5.671875 L 6.875 -5.65625 L 6.890625 -5.890625 C 6.898438 -6.242188 6.847656 -6.597656 6.734375 -6.953125 C 6.671875 -7.085938 6.59375 -7.179688 6.5 -7.234375 C 6.414062 -7.285156 6.273438 -7.328125 6.078125 -7.359375 C 5.816406 -7.378906 5.507812 -7.347656 5.15625 -7.265625 C 4.800781 -7.191406 4.488281 -7.085938 4.21875 -6.953125 C 4.164062 -6.921875 4.109375 -6.878906 4.046875 -6.828125 C 3.984375 -6.773438 3.910156 -6.71875 3.828125 -6.65625 C 3.660156 -6.5 3.578125 -6.414062 3.578125 -6.40625 C 3.578125 -6.382812 3.53125 -6.332031 3.4375 -6.25 C 3.34375 -6.164062 3.253906 -6.085938 3.171875 -6.015625 C 2.929688 -5.859375 2.71875 -5.816406 2.53125 -5.890625 C 2.300781 -5.972656 2.125 -6.148438 2 -6.421875 C 1.96875 -6.472656 1.9375 -6.519531 1.90625 -6.5625 C 1.875 -6.613281 1.84375 -6.648438 1.8125 -6.671875 C 1.75 -6.753906 1.703125 -6.875 1.671875 -7.03125 C 1.648438 -7.195312 1.628906 -7.3125 1.609375 -7.375 C 1.523438 -7.519531 1.550781 -7.71875 1.6875 -7.96875 C 1.820312 -8.269531 1.988281 -8.472656 2.1875 -8.578125 C 2.238281 -8.597656 2.285156 -8.617188 2.328125 -8.640625 C 2.378906 -8.671875 2.421875 -8.707031 2.453125 -8.75 C 2.535156 -8.8125 2.664062 -8.890625 2.84375 -8.984375 C 3.019531 -9.078125 3.238281 -9.164062 3.5 -9.25 C 3.96875 -9.394531 4.492188 -9.515625 5.078125 -9.609375 C 5.140625 -9.617188 5.210938 -9.628906 5.296875 -9.640625 C 5.390625 -9.648438 5.441406 -9.65625 5.453125 -9.65625 Z M 5.453125 -9.65625 "/></g></g></g><g fill="#ffffff" fill-opacity="1"><g transform="translate(292.852393, 36.96321)"><g><path d="M 6.546875 -6.875 C 6.453125 -6.875 6.320312 -6.859375 6.15625 -6.828125 C 6 -6.796875 5.832031 -6.753906 5.65625 -6.703125 C 5.488281 -6.648438 5.335938 -6.582031 5.203125 -6.5 C 5.066406 -6.425781 4.976562 -6.347656 4.9375 -6.265625 C 4.90625 -6.234375 4.878906 -6.148438 4.859375 -6.015625 C 4.847656 -5.890625 4.820312 -5.71875 4.78125 -5.5 C 4.71875 -5.050781 4.691406 -4.816406 4.703125 -4.796875 C 4.710938 -4.785156 4.707031 -4.707031 4.6875 -4.5625 C 4.601562 -4.15625 4.53125 -3.25 4.46875 -1.84375 C 4.46875 -1.4375 4.484375 -1.21875 4.515625 -1.1875 C 4.523438 -1.15625 4.566406 -1.128906 4.640625 -1.109375 C 4.722656 -1.085938 4.816406 -1.070312 4.921875 -1.0625 C 5.023438 -1.0625 5.125 -1.054688 5.21875 -1.046875 C 5.3125 -1.046875 5.378906 -1.046875 5.421875 -1.046875 C 5.921875 -1.046875 6.34375 -1.140625 6.6875 -1.328125 C 7.03125 -1.523438 7.304688 -1.785156 7.515625 -2.109375 C 7.722656 -2.429688 7.867188 -2.796875 7.953125 -3.203125 C 8.046875 -3.617188 8.09375 -4.046875 8.09375 -4.484375 C 8.09375 -4.742188 8.066406 -5.015625 8.015625 -5.296875 C 7.972656 -5.585938 7.894531 -5.847656 7.78125 -6.078125 C 7.675781 -6.304688 7.523438 -6.492188 7.328125 -6.640625 C 7.128906 -6.796875 6.867188 -6.875 6.546875 -6.875 Z M 3.625 -14.0625 C 3.800781 -14.0625 3.953125 -14.054688 4.078125 -14.046875 C 4.210938 -14.035156 4.3125 -14.023438 4.375 -14.015625 C 4.65625 -13.960938 4.898438 -13.835938 5.109375 -13.640625 C 5.429688 -13.328125 5.539062 -12.972656 5.4375 -12.578125 C 5.394531 -12.421875 5.367188 -12.226562 5.359375 -12 C 5.347656 -11.769531 5.320312 -11.566406 5.28125 -11.390625 C 5.226562 -11.179688 5.195312 -10.929688 5.1875 -10.640625 C 5.175781 -10.492188 5.160156 -10.367188 5.140625 -10.265625 C 5.128906 -10.171875 5.117188 -10.113281 5.109375 -10.09375 C 5.085938 -10 5.054688 -9.765625 5.015625 -9.390625 C 5.015625 -9.296875 5.007812 -9.25 5 -9.25 C 5 -9.257812 5 -9.285156 5 -9.328125 C 5 -9.378906 4.992188 -9.421875 4.984375 -9.453125 C 4.972656 -9.484375 4.96875 -9.46875 4.96875 -9.40625 L 4.953125 -9.0625 L 5.15625 -9.140625 C 5.914062 -9.421875 6.601562 -9.5625 7.21875 -9.5625 C 7.632812 -9.5625 8.019531 -9.492188 8.375 -9.359375 C 8.738281 -9.222656 9.070312 -9.035156 9.375 -8.796875 C 9.675781 -8.554688 9.945312 -8.273438 10.1875 -7.953125 C 10.4375 -7.640625 10.648438 -7.3125 10.828125 -6.96875 C 11.171875 -6.226562 11.34375 -5.351562 11.34375 -4.34375 C 11.34375 -3.40625 11.1875 -2.5 10.875 -1.625 C 10.570312 -0.75 10.046875 -0.0078125 9.296875 0.59375 C 8.816406 1 8.34375 1.285156 7.875 1.453125 C 7.414062 1.617188 6.878906 1.703125 6.265625 1.703125 C 5.828125 1.691406 5.457031 1.644531 5.15625 1.5625 C 4.851562 1.488281 4.515625 1.320312 4.140625 1.0625 C 4.015625 0.988281 3.914062 0.929688 3.84375 0.890625 C 3.78125 0.847656 3.71875 0.828125 3.65625 0.828125 C 3.601562 0.828125 3.554688 0.835938 3.515625 0.859375 C 3.472656 0.878906 3.414062 0.898438 3.34375 0.921875 C 3.238281 0.972656 3.125 1 3 1 C 2.875 1 2.734375 0.984375 2.578125 0.953125 C 2.421875 0.921875 2.265625 0.875 2.109375 0.8125 C 1.960938 0.757812 1.828125 0.6875 1.703125 0.59375 C 1.585938 0.507812 1.5 0.410156 1.4375 0.296875 L 1.3125 0.015625 L 1.3125 -0.90625 C 1.34375 -1.71875 1.363281 -2.390625 1.375 -2.921875 C 1.550781 -7.710938 1.585938 -10.675781 1.484375 -11.8125 C 1.460938 -12.195312 1.429688 -12.441406 1.390625 -12.546875 C 1.347656 -12.648438 1.265625 -12.726562 1.140625 -12.78125 C 1.035156 -12.84375 0.96875 -12.890625 0.9375 -12.921875 C 0.914062 -12.960938 0.921875 -13.046875 0.953125 -13.171875 C 0.984375 -13.359375 1.195312 -13.550781 1.59375 -13.75 C 1.832031 -13.882812 2.15625 -13.96875 2.5625 -14 C 2.96875 -14.039062 3.320312 -14.0625 3.625 -14.0625 Z M 3.625 -14.0625 "/></g></g></g></svg>